<svg xmlns="http://www.w3.org/2000/svg" xmlns:xlink="http://www.w3.org/1999/xlink" width="110" height="59" viewBox="0 0 110 59">
    <defs>
        <path id="prefix__a" d="M0.42 0.09L13.877 0.09 13.877 15 0.42 15z"/>
    </defs>
    <g fill="none" fill-rule="evenodd">
        <path d="M0 59L110 59 110 0 0 0z"/>
        <g>
            <path fill="#3C3C3B" d="M9.477 17.487L4.35 17.487 3.513 23.37 0 23.37 2.002 9.072 5.514 9.072 4.718 14.832 9.845 14.832 10.642 9.072 14.134 9.072 12.132 23.37 8.64 23.37zM18.658 18.172c.13.58.34 1.072.633 1.48.293.41.657.726 1.093.951.436.223.926.337 1.471.337.558 0 1.08-.102 1.562-.307.483-.205.91-.503 1.277-.899.367-.395.667-.889.898-1.48.232-.593.39-1.27.47-2.033.082-.736.054-1.393-.08-1.97-.138-.579-.356-1.073-.655-1.482-.3-.408-.67-.72-1.113-.94-.443-.217-.93-.326-1.46-.326-1.145 0-2.09.401-2.84 1.205-.749.803-1.198 1.975-1.348 3.513-.068.722-.037 1.371.092 1.951m-3.146-4.83c.416-.899.974-1.689 1.675-2.37.702-.68 1.53-1.218 2.482-1.614.953-.395 2.008-.592 3.166-.592 1.144 0 2.165.197 3.064.592.898.396 1.647.933 2.247 1.613.6.682 1.041 1.472 1.327 2.37.286.9.402 1.86.347 2.88-.068 1.008-.306 1.964-.714 2.87-.409.906-.964 1.7-1.665 2.38-.7.68-1.532 1.218-2.492 1.613s-2.019.592-3.176.592c-1.144 0-2.162-.197-3.053-.592-.893-.395-1.638-.933-2.237-1.614-.599-.68-1.045-1.473-1.338-2.379-.293-.906-.405-1.862-.337-2.87.054-1.02.29-1.98.704-2.88" transform="translate(29 24)"/>
            <g transform="translate(29 24) translate(30.506 8.677)">
                <mask id="prefix__b" fill="#fff">
                    <use xlink:href="#prefix__a"/>
                </mask>
                <path fill="#3C3C3B" d="M12.243 4.092c-.082-.067-.224-.166-.429-.295-.204-.13-.453-.256-.745-.379-.293-.122-.62-.23-.98-.326-.362-.096-.747-.144-1.155-.144-.599 0-1.17.09-1.716.267-.545.176-1.028.45-1.45.816-.422.368-.773.831-1.052 1.39-.279.558-.453 1.212-.52 1.96-.069.776-.01 1.467.173 2.073.184.606.466 1.117.848 1.532.38.416.844.73 1.388.94.545.211 1.144.316 1.798.316.231 0 .432-.013.602-.04.17-.028.33-.062.48-.103l.715-5.126h3.391l-.98 7.373c-.682.218-1.369.381-2.063.49-.695.11-1.444.164-2.247.164-1.28 0-2.42-.198-3.42-.593-1.002-.395-1.843-.933-2.524-1.613-.68-.68-1.188-1.477-1.522-2.39C.501 9.492.37 8.511.437 7.464c.054-1.05.303-2.023.746-2.923.442-.898 1.034-1.678 1.776-2.338.742-.66 1.621-1.177 2.636-1.552C6.61.277 7.722.091 8.935.091c1.115 0 2.075.12 2.88.366.802.245 1.49.538 2.062.878l-1.634 2.757z" mask="url(#prefix__b)"/>
            </g>
            <path fill="#3C3C3B" d="M50.368 17.201h2.94l-.877-4.146-2.063 4.146zm3.534 2.492h-4.74l-1.878 3.676h-3.411L51.45 9.072h3.574l3.412 14.297h-3.718l-.817-3.676zM64.217 15.915h2.287c.19-.15.412-.422.664-.816.252-.395.412-.852.48-1.37.068-.653-.054-1.15-.367-1.49-.314-.341-.756-.511-1.328-.511-.273 0-.501.014-.684.04-.184.028-.338.062-.46.103l-.592 4.044zm2.532-6.843c.695 0 1.328.075 1.9.225.572.15 1.059.385 1.46.705.402.319.705.735.91 1.246.203.51.299 1.12.285 1.828-.014.503-.116.966-.306 1.388-.191.424-.42.804-.685 1.144-.265.34-.548.638-.847.889-.3.252-.565.453-.797.602l2.86 6.27h-3.962l-2.002-4.901h-1.716l-.674 4.902h-3.513l2.002-14.298h5.085zM22.83 3.73l-.925-.465V1.114h.925V3.73zm5.56 2.803l-4.446-2.24V.558c0-.308-.249-.557-.557-.557h-2.039c-.307 0-.556.249-.556.557v2.146L15.547.06c-.158-.081-.344-.081-.502 0L2.205 6.533c-.189.094-.307.287-.307.497v4.86l.103-.741h1.01V7.373L15.296 1.18l12.285 6.192v5.166c.191.168.398.319.565.509.21.24.377.51.55.776V7.03c0-.21-.12-.403-.307-.497z" transform="translate(29 24)"/>
        </g>
    </g>
</svg>
