<?xml version="1.0" encoding="UTF-8"?>
<svg width="110px" height="59px" viewBox="0 0 110 59" version="1.1" xmlns="http://www.w3.org/2000/svg" xmlns:xlink="http://www.w3.org/1999/xlink">
    <!-- Generator: Sketch 55.2 (78181) - https://sketchapp.com -->
    <title>VIDA</title>
    <desc>Created with Sketch.</desc>
    <defs>
        <polygon id="path-1" points="0.3529 0.194 35.1179 0.194 35.1179 23.3646 0.3529 23.3646"></polygon>
        <polygon id="path-3" points="0.5848 0.6243 8.4918 0.6243 8.4918 9 0.5848 9"></polygon>
    </defs>
    <g id="Page-1" stroke="none" stroke-width="1" fill="none" fill-rule="evenodd">
        <g id="2020-06-08-HOME" transform="translate(-90.000000, -793.000000)">
            <g id="VIDA" transform="translate(90.000000, 793.000000)">
                <polygon id="Fill-7" points="0 59 110 59 110 0 0 0"></polygon>
                <g id="Group-27" transform="translate(19.000000, 16.000000)">
                    <polygon id="Fill-1" fill="#3C3C3B" points="10.6614 9.3337 6.2314 17.4937 3.8994 9.3337 0.0004 9.3337 4.6414 24.4877 5.4464 24.4877 14.3064 9.3337"></polygon>
                    <g id="Group-26" transform="translate(0.000000, 0.806200)">
                        <path d="M30.012,15.946 C29.955,16.638 29.807,17.271 29.567,17.843 C29.326,18.415 28.998,18.906 28.581,19.316 C28.164,19.726 27.673,20.044 27.108,20.27 C26.543,20.496 25.914,20.609 25.222,20.609 C24.911,20.609 24.625,20.595 24.364,20.567 C24.102,20.538 23.901,20.496 23.76,20.439 L25.031,11.453 C25.187,11.425 25.381,11.389 25.614,11.347 C25.847,11.304 26.091,11.283 26.345,11.283 C27.024,11.283 27.606,11.404 28.094,11.644 C28.581,11.884 28.977,12.213 29.281,12.629 C29.585,13.046 29.796,13.54 29.917,14.113 C30.037,14.685 30.068,15.296 30.012,15.946 M33.827,15.946 C33.912,14.943 33.823,13.993 33.562,13.095 C33.301,12.198 32.873,11.41 32.28,10.732 C31.687,10.054 30.934,9.517 30.022,9.121 C29.111,8.726 28.041,8.528 26.812,8.528 L21.789,8.528 L19.711,23.364 L25.264,23.364 C26.621,23.364 27.815,23.177 28.846,22.802 C29.878,22.428 30.746,21.912 31.453,21.255 C32.16,20.598 32.711,19.814 33.106,18.903 C33.502,17.991 33.742,17.006 33.827,15.946" id="Fill-2" fill="#3C3C3B"></path>
                        <g id="Group-6" transform="translate(13.000000, 0.000000)">
                            <mask id="mask-2" fill="white">
                                <use xlink:href="#path-1"></use>
                            </mask>
                            <g id="Clip-5"></g>
                            <path d="M26.7459,16.9636 L28.8869,12.6606 L29.7979,16.9636 L26.7459,16.9636 Z M31.5789,8.5276 L28.6639,8.5276 C29.2579,6.3276 28.7409,3.8666 27.1079,2.1256 C24.7139,-0.4294 20.8059,-0.4294 18.4119,2.1256 L16.8349,3.8046 L15.2579,2.1136 C14.0609,0.8366 12.4789,0.1936 10.9039,0.1936 C9.3289,0.1936 7.7579,0.8366 6.5609,2.1136 C4.9239,3.8606 4.7009,6.3256 5.3039,8.5276 L2.4299,8.5276 L0.3529,23.3646 L3.9979,23.3646 L6.0749,8.5316 L6.0759,8.5316 C6.0749,8.5316 6.0749,8.5306 6.0749,8.5306 L6.0759,8.5276 L6.0739,8.5276 C5.4549,6.5156 5.5969,4.2186 7.0989,2.6166 C8.1619,1.4826 9.5289,0.9136 10.9039,0.9136 C12.2789,0.9136 13.6579,1.4826 14.7209,2.6166 L16.5719,4.5936 C16.7089,4.7416 16.9409,4.7506 17.0889,4.6136 C17.0959,4.6076 17.1029,4.6006 17.1089,4.5936 L18.9489,2.6276 C21.0749,0.3596 24.4449,0.3596 26.5709,2.6276 C28.0689,4.2266 28.5099,6.5186 27.8969,8.5276 L27.8689,8.5276 L20.0059,23.3646 L23.5459,23.3646 L25.4959,19.5486 L30.4129,19.5486 L31.2609,23.3646 L35.1179,23.3646 L31.5789,8.5276 Z" id="Fill-4" fill="#3C3C3B" mask="url(#mask-2)"></path>
                        </g>
                        <path d="M7.1802,29.7449 C7.1182,29.6979 7.0302,29.6379 6.9162,29.5629 C6.8032,29.4889 6.6662,29.4169 6.5072,29.3469 C6.3462,29.2759 6.1652,29.2159 5.9622,29.1649 C5.7592,29.1149 5.5402,29.0889 5.3062,29.0889 C4.9852,29.0889 4.6752,29.1399 4.3752,29.2419 C4.0742,29.3429 3.8012,29.4989 3.5552,29.7099 C3.3092,29.9199 3.1042,30.1899 2.9402,30.5179 C2.7762,30.8459 2.6782,31.2329 2.6472,31.6779 C2.6072,32.1379 2.6512,32.5379 2.7762,32.8779 C2.9012,33.2179 3.0742,33.4969 3.2972,33.7159 C3.5202,33.9339 3.7792,34.0969 4.0762,34.2019 C4.3732,34.3069 4.6772,34.3599 4.9902,34.3599 C5.4112,34.3599 5.7802,34.3109 6.0972,34.2139 C6.4132,34.1159 6.6722,33.9929 6.8762,33.8449 L6.9812,33.8449 L6.7002,35.7659 C6.2162,35.9219 5.6182,35.9999 4.9082,35.9999 C4.2122,35.9999 3.5862,35.8889 3.0272,35.6659 C2.4692,35.4439 1.9972,35.1389 1.6102,34.7519 C1.2232,34.3659 0.9312,33.9089 0.7322,33.3819 C0.5332,32.8549 0.4522,32.2869 0.4912,31.6779 C0.5232,31.0839 0.6672,30.5319 0.9252,30.0199 C1.1822,29.5089 1.5242,29.0609 1.9502,28.6789 C2.3752,28.2959 2.8752,27.9949 3.4492,27.7769 C4.0232,27.5579 4.6502,27.4489 5.3292,27.4489 C5.6572,27.4489 5.9562,27.4689 6.2252,27.5069 C6.4952,27.5469 6.7412,27.5969 6.9632,27.6599 C7.1862,27.7229 7.3912,27.7959 7.5782,27.8829 C7.7662,27.9689 7.9412,28.0619 8.1062,28.1639 L7.1802,29.7449 Z" id="Fill-7" fill="#3C3C3B"></path>
                        <path d="M9.9739,32.843 C10.0479,33.175 10.1689,33.458 10.3369,33.692 C10.5049,33.926 10.7139,34.108 10.9639,34.237 C11.2139,34.365 11.4949,34.43 11.8069,34.43 C12.1269,34.43 12.4259,34.371 12.7029,34.254 C12.9809,34.137 13.2249,33.966 13.4349,33.739 C13.6459,33.512 13.8179,33.23 13.9509,32.89 C14.0839,32.55 14.1729,32.162 14.2199,31.724 C14.2669,31.302 14.2509,30.926 14.1729,30.594 C14.0959,30.262 13.9699,29.979 13.7989,29.745 C13.6269,29.51 13.4139,29.331 13.1599,29.206 C12.9059,29.081 12.6269,29.019 12.3229,29.019 C11.6669,29.019 11.1239,29.249 10.6939,29.71 C10.2649,30.171 10.0069,30.842 9.9209,31.724 C9.8819,32.138 9.8999,32.511 9.9739,32.843 M8.1699,30.073 C8.4089,29.557 8.7279,29.105 9.1299,28.714 C9.5329,28.323 10.0069,28.015 10.5539,27.789 C11.0999,27.562 11.7059,27.449 12.3699,27.449 C13.0259,27.449 13.6109,27.562 14.1269,27.789 C14.6419,28.015 15.0719,28.323 15.4149,28.714 C15.7589,29.105 16.0129,29.557 16.1769,30.073 C16.3399,30.589 16.4069,31.139 16.3759,31.724 C16.3369,32.302 16.1999,32.851 15.9659,33.37 C15.7319,33.889 15.4129,34.344 15.0109,34.735 C14.6089,35.126 14.1319,35.434 13.5819,35.66 C13.0319,35.887 12.4239,36 11.7599,36 C11.1049,36 10.5209,35.887 10.0089,35.66 C9.4979,35.434 9.0699,35.126 8.7269,34.735 C8.3829,34.344 8.1269,33.889 7.9589,33.37 C7.7909,32.851 7.7269,32.302 7.7659,31.724 C7.7969,31.139 7.9319,30.589 8.1699,30.073" id="Fill-9" fill="#3C3C3B"></path>
                        <polygon id="Fill-11" fill="#3C3C3B" points="21.4124 35.824 16.7624 35.824 17.9104 27.624 19.9364 27.624 18.9994 34.302 21.6234 34.302"></polygon>
                        <polygon id="Fill-13" fill="#3C3C3B" points="27.5386 34.3015 27.3396 35.8235 22.1976 35.8235 23.3446 27.6245 28.0546 27.6245 27.8546 29.1475 25.1606 29.1475 24.9036 30.9165 27.5506 30.9165 27.3396 32.4385 24.6926 32.4385 24.4226 34.3015"></polygon>
                        <path d="M35.2344,29.7449 C35.1724,29.6979 35.0844,29.6379 34.9704,29.5629 C34.8574,29.4889 34.7204,29.4169 34.5614,29.3469 C34.4004,29.2759 34.2194,29.2159 34.0164,29.1649 C33.8134,29.1149 33.5944,29.0889 33.3604,29.0889 C33.0394,29.0889 32.7294,29.1399 32.4294,29.2419 C32.1284,29.3429 31.8554,29.4989 31.6094,29.7099 C31.3634,29.9199 31.1584,30.1899 30.9944,30.5179 C30.8304,30.8459 30.7324,31.2329 30.7014,31.6779 C30.6614,32.1379 30.7044,32.5379 30.8304,32.8779 C30.9544,33.2179 31.1284,33.4969 31.3514,33.7159 C31.5744,33.9339 31.8334,34.0969 32.1304,34.2019 C32.4274,34.3069 32.7314,34.3599 33.0444,34.3599 C33.4654,34.3599 33.8344,34.3109 34.1514,34.2139 C34.4674,34.1159 34.7264,33.9929 34.9304,33.8449 L35.0354,33.8449 L34.7544,35.7659 C34.2704,35.9219 33.6724,35.9999 32.9624,35.9999 C32.2664,35.9999 31.6404,35.8889 31.0814,35.6659 C30.5234,35.4439 30.0514,35.1389 29.6644,34.7519 C29.2774,34.3659 28.9854,33.9089 28.7864,33.3819 C28.5864,32.8549 28.5064,32.2869 28.5454,31.6779 C28.5774,31.0839 28.7214,30.5319 28.9794,30.0199 C29.2364,29.5089 29.5784,29.0609 30.0044,28.6789 C30.4294,28.2959 30.9294,27.9949 31.5034,27.7769 C32.0774,27.5579 32.7044,27.4489 33.3834,27.4489 C33.7114,27.4489 34.0104,27.4689 34.2794,27.5069 C34.5494,27.5469 34.7954,27.5969 35.0174,27.6599 C35.2404,27.7229 35.4454,27.7959 35.6324,27.8829 C35.8194,27.9689 35.9954,28.0619 36.1604,28.1639 L35.2344,29.7449 Z" id="Fill-15" fill="#3C3C3B"></path>
                        <polygon id="Fill-17" fill="#3C3C3B" points="42.8597 29.1472 40.6927 29.1472 39.7557 35.8242 37.7407 35.8242 38.6777 29.1472 36.4757 29.1472 36.6867 27.6242 43.0707 27.6242"></polygon>
                        <polygon id="Fill-19" fill="#3C3C3B" points="43.9844 27.6243 45.9994 27.6243 44.8514 35.8243 42.8364 35.8243"></polygon>
                        <g id="Group-23" transform="translate(46.000000, 27.000000)">
                            <mask id="mask-4" fill="white">
                                <use xlink:href="#path-3"></use>
                            </mask>
                            <g id="Clip-22"></g>
                            <polygon id="Fill-21" fill="#3C3C3B" mask="url(#mask-4)" points="8.4918 0.6243 3.5958 9.0003 3.1498 9.0003 0.5848 0.6243 2.7408 0.6243 4.0288 5.1343 6.4768 0.6243"></polygon>
                        </g>
                        <path d="M56.0906,32.843 C56.1646,33.175 56.2856,33.458 56.4536,33.692 C56.6216,33.926 56.8306,34.108 57.0806,34.237 C57.3306,34.365 57.6116,34.43 57.9236,34.43 C58.2436,34.43 58.5426,34.371 58.8196,34.254 C59.0966,34.137 59.3406,33.966 59.5516,33.739 C59.7626,33.512 59.9346,33.23 60.0676,32.89 C60.1996,32.55 60.2896,32.162 60.3366,31.724 C60.3836,31.302 60.3676,30.926 60.2896,30.594 C60.2116,30.262 60.0866,29.979 59.9156,29.745 C59.7436,29.51 59.5306,29.331 59.2766,29.206 C59.0226,29.081 58.7436,29.019 58.4396,29.019 C57.7836,29.019 57.2406,29.249 56.8106,29.71 C56.3816,30.171 56.1236,30.842 56.0376,31.724 C55.9986,32.138 56.0166,32.511 56.0906,32.843 M54.2866,30.073 C54.5246,29.557 54.8446,29.105 55.2466,28.714 C55.6496,28.323 56.1236,28.015 56.6706,27.789 C57.2166,27.562 57.8226,27.449 58.4866,27.449 C59.1416,27.449 59.7276,27.562 60.2436,27.789 C60.7586,28.015 61.1876,28.323 61.5316,28.714 C61.8756,29.105 62.1296,29.557 62.2926,30.073 C62.4566,30.589 62.5236,31.139 62.4926,31.724 C62.4536,32.302 62.3166,32.851 62.0826,33.37 C61.8486,33.889 61.5296,34.344 61.1276,34.735 C60.7256,35.126 60.2486,35.434 59.6986,35.66 C59.1486,35.887 58.5406,36 57.8766,36 C57.2206,36 56.6366,35.887 56.1256,35.66 C55.6136,35.434 55.1866,35.126 54.8436,34.735 C54.4996,34.344 54.2436,33.889 54.0756,33.37 C53.9076,32.851 53.8436,32.302 53.8826,31.724 C53.9136,31.139 54.0486,30.589 54.2866,30.073" id="Fill-24" fill="#3C3C3B"></path>
                    </g>
                </g>
            </g>
        </g>
    </g>
</svg>